G75*
G70*
%OFA0B0*%
%FSLAX24Y24*%
%IPPOS*%
%LPD*%
%AMOC8*
5,1,8,0,0,1.08239X$1,22.5*
%
%ADD10C,0.1260*%
%ADD11O,0.1280X0.0720*%
%ADD12C,0.0680*%
%ADD13C,0.1466*%
%ADD14C,0.0754*%
%ADD15C,0.0695*%
%ADD16C,0.0710*%
%ADD17OC8,0.0720*%
%ADD18O,0.1360X0.0760*%
%ADD19O,0.0720X0.1280*%
%ADD20O,0.0760X0.1360*%
%ADD21OC8,0.0760*%
%ADD22C,0.2160*%
%ADD23C,0.0920*%
%ADD24R,0.0760X0.0760*%
%ADD25R,0.0596X0.0596*%
%ADD26C,0.0480*%
%ADD27C,0.0556*%
D10*
X041366Y002513D03*
X041566Y028813D03*
X004366Y028813D03*
D11*
X011916Y015343D03*
X011916Y014343D03*
X011916Y013343D03*
X016396Y013343D03*
X016396Y014343D03*
X016396Y015343D03*
D12*
X013896Y023943D03*
X011996Y023943D03*
D13*
X005272Y018225D03*
X005272Y013500D03*
D14*
X006335Y015370D03*
X007122Y015370D03*
X007122Y016355D03*
X006335Y016355D03*
D15*
X004866Y002418D03*
X004866Y008168D03*
X017166Y008118D03*
X017166Y002368D03*
D16*
X026016Y019913D03*
X027016Y019913D03*
X028016Y019913D03*
X029016Y019913D03*
X030016Y019913D03*
X031016Y019913D03*
X032016Y019913D03*
X033016Y019913D03*
X034016Y019913D03*
X035016Y019913D03*
X036016Y019913D03*
X037016Y019913D03*
X038016Y019913D03*
X039016Y019913D03*
X038016Y028913D03*
X037016Y028913D03*
X036016Y028913D03*
X035016Y028913D03*
X034016Y028913D03*
X033016Y028913D03*
X032016Y028913D03*
X031016Y028913D03*
X030016Y028913D03*
X029016Y028913D03*
X028016Y028913D03*
X027016Y028913D03*
D17*
X029496Y004113D03*
X030496Y004113D03*
X031496Y004113D03*
X032496Y004113D03*
X033496Y004113D03*
X034496Y004113D03*
X035496Y004113D03*
X035496Y003113D03*
X034496Y003113D03*
X033496Y003113D03*
X032496Y003113D03*
X031496Y003113D03*
X030496Y003113D03*
X029496Y003113D03*
D18*
X018126Y018653D03*
X018126Y019653D03*
X018126Y020653D03*
X018126Y021653D03*
X018126Y022653D03*
X018126Y023653D03*
X018126Y024653D03*
D19*
X022016Y023523D03*
X023016Y023523D03*
X023016Y021923D03*
X022016Y021923D03*
D20*
X022396Y028533D03*
X021396Y028533D03*
X020396Y028533D03*
X019396Y028533D03*
D21*
X039066Y011573D03*
X040066Y011033D03*
X039066Y010493D03*
X040066Y009953D03*
X039066Y009413D03*
X040066Y008873D03*
X039066Y008333D03*
X040066Y007793D03*
X039066Y007253D03*
X008966Y007513D03*
X007966Y007513D03*
X007966Y006513D03*
X008966Y006513D03*
X008966Y005513D03*
X007966Y005513D03*
X007966Y004513D03*
X008966Y004513D03*
X008966Y003513D03*
X007966Y003513D03*
X007966Y002513D03*
X008966Y002513D03*
X008966Y008513D03*
X007966Y008513D03*
X007966Y009513D03*
X008966Y009513D03*
X008966Y010513D03*
D22*
X039566Y014343D03*
X039566Y004483D03*
D23*
X006666Y004613D03*
X006666Y009613D03*
D24*
X007966Y010513D03*
D25*
X012739Y009165D03*
X012739Y008665D03*
X012739Y008161D03*
X012739Y007665D03*
X012739Y007161D03*
X012739Y006665D03*
D26*
X014566Y006813D03*
X014966Y007213D03*
X015366Y007813D03*
X015466Y009113D03*
X018966Y006613D03*
X018766Y006013D03*
X019766Y007213D03*
X019766Y007813D03*
X020766Y008013D03*
X022166Y009013D03*
X021566Y009813D03*
X023116Y012413D03*
X025066Y013413D03*
X025866Y013213D03*
X026366Y013213D03*
X027366Y013213D03*
X028666Y014013D03*
X027766Y014613D03*
X027166Y015013D03*
X028166Y015413D03*
X027866Y015913D03*
X027366Y016613D03*
X028266Y017013D03*
X028766Y017013D03*
X027066Y017313D03*
X026566Y017413D03*
X026316Y016813D03*
X027416Y018613D03*
X027166Y019013D03*
X026266Y019213D03*
X025616Y019063D03*
X023766Y020413D03*
X023366Y019813D03*
X022566Y021013D03*
X022366Y018613D03*
X020566Y018013D03*
X020166Y017513D03*
X020166Y017013D03*
X020166Y016413D03*
X018566Y017013D03*
X016666Y016713D03*
X015466Y018113D03*
X013566Y018813D03*
X012966Y019613D03*
X011166Y019413D03*
X010466Y019363D03*
X012166Y018013D03*
X008266Y018113D03*
X004766Y019413D03*
X009266Y021713D03*
X009966Y022413D03*
X009366Y023413D03*
X011766Y021613D03*
X012366Y022013D03*
X012966Y022013D03*
X013466Y021913D03*
X015466Y021813D03*
X024166Y024613D03*
X033666Y017613D03*
X032066Y015913D03*
X033566Y014813D03*
X033966Y013813D03*
X033366Y013013D03*
X033166Y012613D03*
X031339Y012094D03*
X030766Y013113D03*
X030166Y013213D03*
X030966Y014113D03*
X028566Y014813D03*
X025766Y014613D03*
X025366Y014813D03*
X023366Y014613D03*
X021566Y015013D03*
X017266Y014813D03*
X017266Y013813D03*
X013966Y013613D03*
X012966Y012613D03*
X009566Y014613D03*
X006966Y007613D03*
X010466Y005413D03*
X012866Y003513D03*
X014366Y004413D03*
X014566Y005213D03*
X015166Y005913D03*
X015566Y004413D03*
X017166Y004213D03*
X018766Y004613D03*
X018966Y003713D03*
X019166Y003013D03*
X019166Y002213D03*
X022166Y005013D03*
X021366Y005213D03*
X023566Y004813D03*
X024766Y006413D03*
X027766Y006013D03*
X028966Y006413D03*
X028766Y007413D03*
X029466Y007313D03*
X030866Y006413D03*
X032866Y007113D03*
X034876Y008253D03*
X034366Y009613D03*
X035466Y011413D03*
X035566Y013013D03*
X037766Y011613D03*
X037966Y013013D03*
X037566Y014513D03*
X029866Y011913D03*
X029066Y011913D03*
X027766Y011313D03*
X028566Y010513D03*
X027766Y010013D03*
X029066Y008513D03*
X029966Y008513D03*
X030966Y009013D03*
X035766Y006313D03*
X037766Y007813D03*
X039566Y006613D03*
X026216Y012013D03*
X006766Y027013D03*
X004766Y027413D03*
D27*
X022966Y018013D03*
M02*
