%
M48
M72
T01C0.0160
T02C0.0236
T03C0.0320
T04C0.0350
T05C0.0360
T06C0.0394
T07C0.0400
T08C0.0433
T09C0.0535
T10C0.0906
T11C0.1100
T12C0.1300
%
T01
X10466Y5413
X12866Y3513
X14366Y4413
X14566Y5213
X15166Y5913
X14566Y6813
X14966Y7213
X15366Y7813
X15466Y9113
X18966Y6613
X18766Y6013
X19766Y7213
X19766Y7813
X20766Y8013
X22166Y9013
X21566Y9813
X23116Y12413
X25066Y13413
X25866Y13213
X26366Y13213
X27366Y13213
X28666Y14013
X27766Y14613
X27166Y15013
X28166Y15413
X27866Y15913
X27366Y16613
X28266Y17013
X28766Y17013
X27066Y17313
X26566Y17413
X26316Y16813
X27416Y18613
X27166Y19013
X26266Y19213
X25616Y19063
X23766Y20413
X23366Y19813
X22566Y21013
X22366Y18613
X20566Y18013
X20166Y17513
X20166Y17013
X20166Y16413
X18566Y17013
X16666Y16713
X15466Y18113
X13566Y18813
X12966Y19613
X11166Y19413
X10466Y19363
X12166Y18013
X8266Y18113
X4766Y19413
X9266Y21713
X9966Y22413
X9366Y23413
X11766Y21613
X12366Y22013
X12966Y22013
X13466Y21913
X15466Y21813
X24166Y24613
X33666Y17613
X32066Y15913
X33566Y14813
X33966Y13813
X33366Y13013
X33166Y12613
X31339Y12094
X30766Y13113
X30166Y13213
X30966Y14113
X28566Y14813
X25766Y14613
X25366Y14813
X23366Y14613
X21566Y15013
X17266Y14813
X17266Y13813
X13966Y13613
X12966Y12613
X9566Y14613
X6966Y7613
X15566Y4413
X17166Y4213
X18766Y4613
X18966Y3713
X19166Y3013
X19166Y2213
X22166Y5013
X21366Y5213
X23566Y4813
X24766Y6413
X27766Y6013
X28966Y6413
X28766Y7413
X29466Y7313
X30866Y6413
X32866Y7113
X34876Y8253
X34366Y9613
X35466Y11413
X35566Y13013
X37766Y11613
X37966Y13013
X37566Y14513
X29866Y11913
X29066Y11913
X27766Y11313
X28566Y10513
X27766Y10013
X29066Y8513
X29966Y8513
X30966Y9013
X35766Y6313
X37766Y7813
X39566Y6613
X26216Y12013
X6766Y27013
X4766Y27413
T02
X22966Y18013
X12739Y9165
X12739Y8665
X12739Y8161
X12739Y7665
X12739Y7161
X12739Y6665
T03
X11996Y23943
X13896Y23943
T04
X26016Y19913
X27016Y19913
X28016Y19913
X29016Y19913
X30016Y19913
X31016Y19913
X32016Y19913
X33016Y19913
X34016Y19913
X35016Y19913
X36016Y19913
X37016Y19913
X38016Y19913
X39016Y19913
X38016Y28913
X37016Y28913
X36016Y28913
X35016Y28913
X34016Y28913
X33016Y28913
X32016Y28913
X31016Y28913
X30016Y28913
X29016Y28913
X28016Y28913
X27016Y28913
T05
X23016Y23523
X22016Y23523
X22016Y21923
X23016Y21923
X16396Y15343
X16396Y14343
X16396Y13343
X11916Y13343
X11916Y14343
X11916Y15343
X29496Y4113
X30496Y4113
X31496Y4113
X32496Y4113
X33496Y4113
X34496Y4113
X35496Y4113
X35496Y3113
X34496Y3113
X33496Y3113
X32496Y3113
X31496Y3113
X30496Y3113
X29496Y3113
T06
X7122Y15370
X6335Y15370
X6335Y16355
X7122Y16355
T07
X7966Y10513
X8966Y10513
X8966Y9513
X7966Y9513
X7966Y8513
X8966Y8513
X8966Y7513
X7966Y7513
X7966Y6513
X8966Y6513
X8966Y5513
X7966Y5513
X7966Y4513
X8966Y4513
X8966Y3513
X7966Y3513
X7966Y2513
X8966Y2513
X18126Y18653
X18126Y19653
X18126Y20653
X18126Y21653
X18126Y22653
X18126Y23653
X18126Y24653
X19396Y28533
X20396Y28533
X21396Y28533
X22396Y28533
X39066Y11573
X40066Y11033
X39066Y10493
X40066Y9953
X39066Y9413
X40066Y8873
X39066Y8333
X40066Y7793
X39066Y7253
T08
X6666Y9613
X6666Y4613
T09
X4866Y2418
X4866Y8168
X17166Y8118
X17166Y2368
T10
X5272Y13500
X5272Y18225
T11
X4366Y28813
X41566Y28813
X41366Y2513
T12
X39566Y4483
X39566Y14343
M30
